<svg fill="none" height="96" viewBox="0 0 96 96" width="96" xmlns="http://www.w3.org/2000/svg"><path d="m48 0c-26.508 0-48 21.492-48 48s21.492 48 48 48 48-21.492 48-48-21.492-48-48-48z" fill="#4900e6"/><path clip-rule="evenodd" d="m43.4286 16h9.1428v9.1786c8.5029.1965 13.5804 4.4632 13.5804 11.366 0 4.8458-3.5776 9.0641-8.2679 9.759v.5714c6.0526.4434 10.4554 5.0092 10.4554 10.9018 0 8-6.0353 13.0577-15.7679 13.0714v9.1518h-9.1428v-9.1429h-11.4286v-45.7142h11.4286zm-1.8572 16.4643v11.625h7.1875c5.1657 0 7.9822-2.1192 7.9822-5.7947 0-3.6434-2.6252-5.8303-7.1875-5.8303zm0 18.0893v12.9821h8.5179c5.5131 0 8.4911-2.315 8.4911-6.5893 0-4.1828-3.0778-6.3928-8.7143-6.3928z" fill="#fff" fill-rule="evenodd"/></svg>